<?xml version="1.0" encoding="UTF-8"?>
<svg id="Android" xmlns="http://www.w3.org/2000/svg" xmlns:xlink="http://www.w3.org/1999/xlink" version="1.1" viewBox="0 0 402.2 725.1">
  <!-- Generator: Adobe Illustrator 29.1.0, SVG Export Plug-In . SVG Version: 2.1.0 Build 142)  -->
  <defs>
    <style>
      .st0 {
        fill: #deeaaa;
      }

      .st1 {
        isolation: isolate;
      }

      .st2 {
        fill: #231815;
      }

      .st3 {
        fill: #141c1a;
      }

      .st4 {
        opacity: .5;
      }
    </style>
  </defs>
  <g id="_投影" class="st4">
    <image class="st1" width="326" height="597" transform="translate(43 79.1)" xlink:href="Android投影.png"/>
  </g>
  <rect id="_背景蒙版" class="st0" x="88" y="113" width="236.7" height="512.9" rx="19.8" ry="19.8"/>
  <g id="_手机ui" class="st4">
    <g>
      <path class="st3" d="M280.9,130.3l5,5,5-5c-2.8-2.8-7.3-2.8-10.1,0h.1Z"/>
      <path class="st3" d="M300.2,127.1l-9.2,9.2h9.2v-9.2Z"/>
      <path class="st3" d="M307.7,126.8h-2.2v1h-1.1c-.4,0-.7.3-.7.7v7.3c0,.4.3.7.7.7h4.4c.4,0,.7-.3.7-.7v-7.3c0-.4-.3-.7-.7-.7h-1.1v-1h0Z"/>
    </g>
    <path class="st3" d="M153.7,609.9h104c1.1,0,2,.9,2,2h0c0,1.1-.9,2-2,2h-104c-1.1,0-2-.9-2-2h0c0-1.1.9-2,2-2h0Z"/>
  </g>
  <g id="_外壳">
    <path id="_外壳颜色" class="st2" d="M330.2,261.3v-128.5c0-14-11.4-25.3-25.3-25.3H107.8c-14,0-25.3,11.4-25.3,25.3v110.9c-1.6.2-2.8,1.6-2.8,3.2v24.7c0,1.6,1.2,3,2.8,3.2v5.3c-1.6.2-2.8,1.6-2.8,3.2v24.8c0,1.6,1.2,3,2.8,3.2v294.7c0,14,11.4,25.3,25.3,25.3h197c14,0,25.3-11.4,25.3-25.3v-286.7c1.6-.2,2.9-1.5,2.9-3.2v-51.6c0-1.7-1.3-3-2.9-3.2h.1ZM319.2,606.1c0,7.9-6.4,14.3-14.3,14.3H107.8c-7.9,0-14.3-6.4-14.3-14.3V132.8c0-7.9,6.4-14.3,14.3-14.3h197c7.9,0,14.3,6.4,14.3,14.3v473.3h.1Z"/>
    <circle id="_摄像头" class="st2" cx="112.7" cy="131.4" r="6.5"/>
  </g>
</svg>