<?xml version="1.0" encoding="UTF-8"?>
<svg id="imac" xmlns="http://www.w3.org/2000/svg" xmlns:xlink="http://www.w3.org/1999/xlink" version="1.1" viewBox="0 0 917.7 660.8">
  <!-- Generator: Adobe Illustrator 29.1.0, SVG Export Plug-In . SVG Version: 2.1.0 Build 142)  -->
  <defs>
    <style>
      .st0 {
        fill: #e0e0e0;
      }

      .st1 {
        fill: url(#_未命名的渐变_4);
      }

      .st2, .st3, .st4 {
        fill: #040000;
      }

      .st5, .st3, .st4 {
        isolation: isolate;
      }

      .st3 {
        opacity: .1;
      }

      .st4 {
        opacity: .2;
      }

      .st6 {
        fill: #fff;
      }

      .st7 {
        fill: #b7d1c0;
      }

      .st8 {
        opacity: .5;
      }

      .st9 {
        fill: #b5c7b1;
      }

      .st10 {
        fill: #eff0f2;
      }
    </style>
    <linearGradient id="_未命名的渐变_4" data-name="未命名的渐变 4" x1="461" y1="-70.7" x2="461" y2="16.8" gradientTransform="translate(0 481.9) scale(1 -1)" gradientUnits="userSpaceOnUse">
      <stop offset="0" stop-color="#fff" stop-opacity=".5"/>
      <stop offset="0" stop-color="#fff" stop-opacity="0"/>
      <stop offset="1" stop-color="#231815" stop-opacity=".4"/>
    </linearGradient>
  </defs>
  <g id="_投影" class="st8">
    <image class="st5" width="718" height="86" transform="translate(100 515.8)" xlink:href="imac投影.png"/>
  </g>
  <rect id="_背景蒙版" class="st9" x="150.7" y="30.9" width="620" height="358.5"/>
  <g id="_屏幕ui">
    <g>
      <rect class="st4" x="153.5" y="34.2" width="617.2" height="15.2"/>
      <path class="st6" d="M704.5,41.5v4.6s.2.2.3.3h1s.2-.2.3-.3v-4.6s-.2-.2-.3-.3h-1s-.2.2-.3.3Z"/>
      <path class="st6" d="M702.1,42.9v-.5s.2-.2.3-.3h1s.2.2.3.3v3.6s-.2.2-.3.3h-1s-.2-.2-.3-.3v-3.1Z"/>
      <path class="st6" d="M699.8,43.5v2.5s.2.2.3.3h1s.2-.2.3-.3v-2.5s-.2-.2-.3-.3h-1s-.2.2-.3.3Z"/>
      <path class="st6" d="M697.5,44.3v1.8s.2.2.3.3h1s.2-.2.3-.3v-1.8s-.2-.2-.3-.3h-1s-.2.2-.3.3Z"/>
      <path class="st6" d="M714.5,43.3h.2l.5-.5v-.2c-.9-.9-2.2-1.4-3.6-1.4s-2.6.5-3.6,1.4v.2l.5.5h.2c.7-.7,1.7-1.1,2.8-1.1s2.1.4,2.8,1.1h.2,0Z"/>
      <path class="st6" d="M713.2,44.6h.2l.5-.5v-.2c-.6-.6-1.4-.9-2.3-.9s-1.7.3-2.3.9v.2l.5.5h.2c.4-.4,1-.6,1.6-.6s1.2.2,1.6.6Z"/>
      <path class="st6" d="M712.7,45.1v.2l-1,1h-.2l-1-1v-.2c.3-.2.7-.4,1-.4s.8,0,1,.4h.2Z"/>
      <path class="st6" d="M718.9,45.8v-3.7h0l-1.1.8v-.7l1.2-.8h.7v4.3h-.8ZM722.3,45.9c-.3,0-.6,0-.9-.3s-.4-.5-.5-.8-.2-.8-.2-1.2h0c0-.5,0-.9.2-1.2s.3-.6.5-.8.5-.3.9-.3.6,0,.9.3.4.5.5.8.2.7.2,1.2h0c0,.5,0,.9-.2,1.2s-.3.6-.5.8-.5.3-.9.3h0ZM722.3,45.3c.2,0,.4,0,.5-.2s.2-.3.3-.6v-.9h0v-.9c0-.2-.2-.5-.3-.6s-.3-.2-.5-.2-.4,0-.5.2-.2.3-.3.6v.9h0v.9c0,.3.2.5.3.6s.3.2.5.2h0ZM726.3,45.9c-.3,0-.6,0-.9-.3s-.4-.5-.5-.8-.2-.8-.2-1.2h0c0-.5,0-.9.2-1.2s.3-.6.5-.8.5-.3.9-.3.6,0,.9.3.4.5.5.8.2.7.2,1.2h0c0,.5,0,.9-.2,1.2s-.3.6-.5.8-.5.3-.9.3h0ZM726.3,45.3c.2,0,.4,0,.5-.2s.2-.3.3-.6v-.9h0v-.9c0-.2-.2-.5-.3-.6s-.3-.2-.5-.2-.4,0-.5.2-.2.3-.3.6v.9h0v.9c0,.3.2.5.3.6s.3.2.5.2h0ZM729.7,43.7h-.5s-.2-.2-.3-.4v-.6h0v-.6c0-.2.2-.3.3-.4s.3,0,.5,0h.5s.2.2.3.4,0,.4,0,.6h0v.6c0,0-.2.3-.3.4h-.5ZM729.7,43.3s.2,0,.3-.2,0-.3,0-.6h0v-.6s-.2-.2-.3-.2-.2,0-.3.2,0,.3,0,.6h0v.6s.2.2.3.2ZM730.1,45.8h-.6l3-4.3h.6l-3,4.3ZM733,45.8h-.5s-.2-.2-.3-.4v-.6h0v-.6c0-.2.2-.3.3-.4s.3,0,.5,0h.5s.2.2.3.4v.6h0v.6c0,0-.2.3-.3.4s-.3,0-.5,0h0ZM733,45.4s.2,0,.3-.2,0-.3,0-.6h0v-.6s-.2-.2-.3-.2-.2,0-.3.2,0,.3,0,.6h0v.6c0,0,.2.2.3.2h0Z"/>
      <path class="st6" d="M747.8,40.8l.2-.5h0l-.2.5ZM748.5,41.5l.5-.2h0l-.5.2ZM748.5,45.9l.5.2h0l-.5-.2h0ZM748.5,46l.4.3h0l-.5-.3h0ZM747.8,46.6l.2.5h0l-.2-.5h0ZM747.7,46.7l.2.5h0l-.2-.5h0ZM739,46.8v.5h0v-.5ZM738.4,46.8v.5h0v-.5ZM737.3,46.6l-.2.5h0l.2-.5ZM736.6,46l-.5.2h0l.4-.2h0ZM736.5,45.9l-.5.2h0l.5-.2h0ZM736.5,41.6l-.5-.2h0l.5.2ZM736.5,41.5l-.5-.2h0l.5.2h0ZM737.2,40.9l-.2-.5h0l.3.4h0ZM737.3,40.8l-.2-.5h0l.2.5h0ZM738.4,40.6v-.5h0v.5ZM739,40.6v-.5h0v.5ZM738,41.2v-.5h0v.5ZM737.5,41.3l-.2-.5h0l.2.5ZM737,41.8l-.5-.2h0l.5.2ZM736.9,42.2h-.5.5ZM736.9,45.2h-.5.5ZM737,45.7l-.5.2h0l.5-.2ZM737.5,46.2l-.2.5h0l.2-.5ZM738,46.3v.5h0v-.5ZM747.1,46.3v.5h0v-.5ZM747.6,46.2l.2.5h0l-.2-.5ZM748.1,45.7l.5.2h0l-.5-.2ZM748.2,45.2h.5-.5ZM748.2,42.2h.5-.5ZM748.1,41.8l.5-.2h0l-.5.2ZM747.6,41.3l.2-.5h0l-.2.5ZM747.1,41.2v-.5h0v.5ZM749.2,42.7v-.5l-.5-.2v.7h.5ZM749.2,44.7h-.5v.7l.6-.2v-.5h0ZM746,40.6v.5h1.6l.2-.5.2-.5c-.3,0-.5-.2-.9-.2h-1.1v.5h0v.2ZM747.8,40.8l-.2.5c.2,0,.4.3.5.5l.5-.2.5-.2c-.2-.4-.5-.8-1-1l-.2.5h0ZM748.5,41.5l-.5.2v1.6h1v-1.1c0-.3,0-.6-.2-.9l-.5.2h.2ZM748.7,43.3h-.5v.8h1v-.8h-.5ZM748.7,44.1h-.5v1.6l.5.2.5.2c0-.3.2-.5.2-.9v-1.1h-.7ZM748.5,45.9l-.5-.2h0l.5.4.5.2h0l-.5-.4ZM748.5,46l-.4-.3c0,.2-.3.3-.5.4l.2.5.2.5c.4-.2.7-.5.9-.8l-.4-.3h0ZM747.8,46.6l-.2-.5h0l.2.5.2.5h0l-.2-.5ZM747.7,46.7l-.2-.5h-1.5v1h1.1c.3,0,.6,0,.8-.2l-.2-.5h0v.2h0ZM746,46.8v-.5h-7v1h7v-.5h0ZM739,46.8v-.5h-.6v1h.6v-.5ZM738.4,46.8v-.5h-.9l-.2.5-.2.5c.4.2.8.2,1.4.2v-.5h0v-.2ZM737.3,46.6l.2-.5c-.2,0-.3-.2-.5-.4l-.4.3-.4.3c.2.3.5.6.9.8l.2-.5h0ZM736.6,46l.5-.2h-.5l-.5.2h.5ZM736.5,45.9l.5-.2v-1.6h-1v1.1c0,.3,0,.6.2.9l.5-.2h-.2ZM736.4,44.1h.5v-.8h-1v.8h.5ZM736.4,43.3h.5v-1.5l-.5-.2-.5-.2c0,.2-.2.5-.2.8v1.1s.7,0,.7,0ZM736.5,41.6l.5.2h0l-.5-.3-.5-.2h0l.5.3ZM736.5,41.5l.5.2c0-.2.2-.3.4-.5l-.3-.4-.3-.4c-.3.2-.6.5-.8.9l.5.2h0ZM737.2,40.9l.2.5h0l-.2-.5-.2-.5h0l.2.5ZM737.3,40.8l.2.5h.9v-1c-.6,0-1,0-1.4.2l.2.5h0v-.2ZM738.4,40.6v.5h.6v-1h-.6v.5h0ZM739,40.6v.5h7v-1h-7v.5h0ZM739,41.1v-.5h-1.1v1h1v-.5h0ZM738,41.2v-.5c-.3,0-.5,0-.7.2l.2.5.2.5h.3v-.5h0v-.2ZM737.5,41.3l-.2-.5c-.3.2-.6.4-.7.7l.5.2.5.2s.2-.2.3-.3l-.2-.5h0l-.2.2h0ZM737,41.8l-.5-.2c0,.2,0,.4-.2.7h1v-.3l-.5-.2h.2ZM736.9,42.2h-.5v1.1h1v-1h-.5ZM736.9,43.3h-.5v.8h1v-.8h-.5ZM736.9,44.1h-.5v1.1h1v-1h-.5ZM736.9,45.2h-.5c0,.3,0,.5.2.7l.5-.2.5-.2v-.3h-.7ZM737,45.7l-.5.2c.2.3.4.6.7.7l.2-.5.2-.5s-.2-.2-.3-.3l-.5.2h0l.2.2h0ZM737.5,46.2l-.2.5c.2,0,.4,0,.7.2v-1h-.3l-.2.5h0v-.2ZM738,46.3v.5h1.1v-1h-1v.5h0ZM739,46.3v.5h7v-1h-7v.5h0ZM746,46.3v.5h1.1v-1h-1v.5h0ZM747.1,46.3v.5c.3,0,.5,0,.7-.2l-.2-.5-.2-.5h-.3v.5h0v.2ZM747.6,46.2l.2.5c.3-.2.6-.4.7-.7l-.5-.2-.5-.2s-.2.2-.3.3l.2.5h0l.2-.2h0ZM748.1,45.7l.5.2c0-.2,0-.4.2-.7h-1v.3l.5.2h-.2ZM748.2,45.2h.5v-1.1h-1v1h.5ZM748.2,44.1h.5v-.8h-1v.8h.5ZM748.2,43.3h.5v-1.1h-1v1h.5ZM748.2,42.2h.5c0-.3,0-.5-.2-.7l-.5.2-.5.2v.3h.7ZM748.1,41.8l.5-.2c-.2-.3-.4-.6-.7-.7l-.2.5-.2.5s.2.2.3.3l.5-.2h0l-.2-.2h0ZM747.6,41.3l.2-.5c-.2,0-.4,0-.7-.2v1h.3l.2-.5h0v.2ZM747.1,41.2v-.5h-1.1v1h1v-.5h0ZM746,41.1v-.5h-7v1h7v-.5h0ZM749.2,42.7v.5s.3.3.3.5h1c0-.7-.5-1.3-1.2-1.5v.5h0ZM750,43.7h-.5c0,.2-.2.4-.4.5v.5l.3.5c.7-.2,1.2-.8,1.2-1.5h-.6ZM749.2,44.7h.5v-2h-1v2h.5Z"/>
      <rect class="st6" x="737.4" y="41.7" width="10.3" height="4.1" rx="1.5" ry="1.5"/>
    </g>
    <rect class="st3" x="354.1" y="343.5" width="210.5" height="30.5" rx="8.5" ry="8.5"/>
    <g>
      <path class="st0" d="M533.2,349.1h0s.2,0,.2.1v18.5s0,.1-.2.1h0s-.2,0-.2-.1v-18.5s0-.1.2-.1Z"/>
      <rect class="st4" x="359.3" y="347.7" width="22" height="22" rx="7.4" ry="7.4"/>
      <rect class="st4" x="389" y="347.7" width="22" height="22" rx="7.4" ry="7.4"/>
      <rect class="st4" x="418.7" y="347.7" width="22" height="22" rx="7.4" ry="7.4"/>
      <rect class="st4" x="448.3" y="347.7" width="22" height="22" rx="7.4" ry="7.4"/>
      <rect class="st4" x="478" y="347.7" width="22" height="22" rx="7.4" ry="7.4"/>
      <rect class="st4" x="507.7" y="347.7" width="22" height="22" rx="7.4" ry="7.4"/>
      <rect class="st4" x="537.3" y="347.7" width="22" height="22" rx="7.4" ry="7.4"/>
    </g>
  </g>
  <g id="_外壳">
    <path id="_屏幕边框" class="st10" d="M768.2,22.4H153.1c-6.9,0-12.4,5.6-12.4,12.4v414.1c0,6.9,5.6,12.4,12.4,12.4h615.1c6.9,0,12.4-5.6,12.4-12.4V34.8c0-6.9-5.6-12.4-12.4-12.4h0ZM764.1,382.7H157.2V37.6h606.9v345.1h0Z"/>
    <path id="_外壳颜色" class="st7" d="M780.4,396.8H140.9c-.1,0-.2.1-.2.2v51.9c0,6.9,5.6,12.4,12.4,12.4h231.1v95c0,1.5,1,2.8,2.4,3.3v1.5c0,.5.4.9.9.9h18.2c.5,0,.9-.4.9-.9v-1.3h109v1.3c0,.5.4.9.9.9h18.2c.5,0,.9-.4.9-.9v-1.6c1.2-.5,2.1-1.8,2.1-3.2v-95h230.6c6.9,0,12.4-5.6,12.4-12.4v-51.9c0-.1,0-.2-.2-.2h-.1Z"/>
    <g id="_屏幕边框2">
      <path class="st2" d="M764.6,383.2H156.7V37.1h607.9v346.1h0ZM157.7,382.2h605.9V38.1H157.7v344.1h0Z"/>
    </g>
    <circle class="st2" cx="460.7" cy="30.2" r="2.4"/>
    <path id="_细节" class="st1" d="M384.2,461.4v89.3c0,1.9,1.5,3.5,3.5,3.5h146.6c1.9,0,3.5-1.5,3.5-3.5v-89.3h-153.6Z"/>
  </g>
</svg>