<?xml version="1.0" encoding="UTF-8"?>
<svg id="ipad" xmlns="http://www.w3.org/2000/svg" xmlns:xlink="http://www.w3.org/1999/xlink" version="1.1" viewBox="0 0 917.7 616.1">
  <!-- Generator: Adobe Illustrator 29.1.0, SVG Export Plug-In . SVG Version: 2.1.0 Build 142)  -->
  <defs>
    <style>
      .st0 {
        fill: #040000;
      }

      .st1, .st2, .st3 {
        isolation: isolate;
      }

      .st4 {
        fill: #fce077;
      }

      .st5, .st3 {
        fill: #fff;
      }

      .st2 {
        fill: #232323;
        opacity: .1;
      }

      .st6 {
        fill: #c30d23;
      }

      .st7 {
        opacity: .4;
      }

      .st8, .st3 {
        opacity: .6;
      }

      .st9 {
        opacity: .5;
      }
    </style>
  </defs>
  <g id="_投影" class="st9">
    <image class="st1" width="820" height="609" transform="translate(57 11.1)" xlink:href="ipad投影.png"/>
  </g>
  <rect id="_背景蒙版" class="st4" x="109.7" y="62.5" width="717" height="498" rx="23.1" ry="23.1"/>
  <g id="_屏幕ui">
    <g>
      <path class="st3" d="M437.6,134.8h-39.5c-.9,0-1.6.7-1.7,1.6l-1.9,113.9c0,.9.7,1.7,1.7,1.7h9.9c.9,0,1.7-.8,1.7-1.7v-16c0-5.8,4.7-10.6,10.5-10.6h0c6.2,0,11.1,5,11.1,11.1v83.4c0,6.3-5.1,11.3-11.3,11.3h0c-6.3,0-11.3-5.1-11.3-11.3v-34.6c0-.9-.8-1.7-1.7-1.7h-9c-.9,0-1.7.8-1.7,1.7v37.3c0,11,9,20,20,20h8.8c10.5,0,19.1-8.5,19.1-19.1v-91.4c0-11.1-9-20-20-20h-3.7c-.2,0-3.2.7-3.3.7l-2.8,1.1c-.3,0-2,1.2-2.2,1.4l-1.7,1.9c-.2.2-.6,0-.6-.2l.6-67.3c0-.9.8-1.6,1.7-1.6h27.1c.9,0,1.7-.8,1.7-1.7v-8.3c0-.9-.8-1.7-1.7-1.7h.2,0Z"/>
      <path class="st3" d="M464.6,148.8l16-13.6c.3-.3.7-.4,1.2-.4h11.5c1,0,1.8.8,1.8,1.8v202.7c0,1-.8,1.8-1.8,1.8h-10.3c-1,0-1.8-.8-1.8-1.8v-189.5c0-.4-.5-.6-.8-.3l-12.9,12.9c-1.1,1.1-3,.4-3.1-1.2l-.4-10.9c0-.6.2-1.1.6-1.4h0Z"/>
      <g class="st8">
        <path class="st5" d="M529.5,343.1c-13.9,0-25.2-11.3-25.2-25.2v-158.9c0-13.9,11.3-25.2,25.2-25.2s25.2,11.3,25.2,25.2v158.9c0,13.9-11.3,25.2-25.2,25.2ZM529.5,146.7c-6.8,0-12.2,5.5-12.2,12.2v158.9c0,6.8,5.5,12.2,12.2,12.2s12.2-5.5,12.2-12.2v-158.9c0-6.8-5.5-12.2-12.2-12.2h0Z"/>
      </g>
      <circle class="st3" cx="457.6" cy="194.7" r="7.9"/>
      <circle class="st3" cx="457.6" cy="281.6" r="7.9"/>
    </g>
    <g>
      <path class="st5" d="M423.1,110l3.3,8.6h-1.4l-.8-2.2h-3.7l-.8,2.2h-1.4l3.3-8.6h1.5ZM423.8,115.3l-1.4-3.9h0l-1.4,3.9h2.9-.1Z"/>
      <path class="st5" d="M432.4,113.2c.5.6.7,1.4.7,2.3s-.2,1.7-.7,2.3c-.5.7-1.2,1-2.1,1s-1.4-.4-1.9-1.1v3.3h-1.3v-8.6h1.2v.7c.4-.6,1.1-.9,1.9-.9s1.6.3,2.1,1h0ZM428.8,113.9c-.3.4-.4.9-.4,1.5h0c0,.8.2,1.3.5,1.7.3.4.7.6,1.1.6s1.1-.2,1.4-.6.4-.9.4-1.6-.1-1.2-.4-1.6c-.3-.5-.8-.7-1.4-.7s-1,.2-1.3.7h0Z"/>
      <path class="st5" d="M438,112.4v1.3h-.9c-.3,0-.7.2-1,.5s-.5.8-.5,1.3v3.3h-1.3v-6.2h1.3v.9c.2-.3.4-.6.6-.8.3-.2.6-.3,1-.3s.6,0,.8.2h0v-.2Z"/>
      <path class="st5" d="M445.8,110v8.6h-1.3v-7c-.5.5-1.2.8-2,1.1v-1.3c.4,0,.8-.3,1.2-.5.4-.3.8-.5,1.1-.8h1,0Z"/>
      <path class="st5" d="M455.9,110.5h1v3.9h0c.2-.3.4-.6.6-.9l2.5-3h1.3l-2.9,3.4,3.1,4.7h-1.2l-2.7-4-.8.9v3.1h-1v-8.1h.1Z"/>
      <path class="st5" d="M464.1,118.6v-3.4l-2.5-4.7h1.2l1.1,2.2c.3.6.5,1.1.8,1.7h0c.2-.5.5-1.1.8-1.7l1.2-2.2h1.2l-2.7,4.6v3.4h-1.1Z"/>
      <path class="st5" d="M475.3,114.5c0,2.8-1.7,4.3-3.8,4.3s-3.6-1.7-3.6-4.1,1.6-4.2,3.8-4.2,3.6,1.7,3.6,4.1h0ZM469,114.6c0,1.7.9,3.3,2.6,3.3s2.6-1.5,2.6-3.4-.8-3.3-2.6-3.3-2.6,1.6-2.6,3.4h0Z"/>
      <path class="st5" d="M485.6,111c.5.7.8,1.8.8,3.1s-.3,2.5-.9,3.4-1.4,1.3-2.4,1.3c-1.7,0-2.6-.8-2.8-2.3h1.3c.2.8.7,1.2,1.6,1.2s1.1-.3,1.4-.9.5-1.2.5-2.1,0,0,0-.2h0c-.2.4-.5.7-.9.8-.4.2-.7.3-1.2.3-.8,0-1.5-.3-2-.8s-.7-1.2-.7-2.1.3-1.6.9-2.1c.6-.6,1.3-.8,2.1-.8s1.8.4,2.4,1.1h0ZM482,111.5c-.3.3-.5.8-.5,1.3s.2,1,.5,1.3.7.5,1.3.5,1-.2,1.3-.5.5-.8.5-1.3-.2-1-.5-1.3-.7-.5-1.2-.5-1,.2-1.3.5h0Z"/>
      <path class="st5" d="M489.2,112.7c.2.2.3.4.3.6s-.1.5-.3.6c-.2.2-.4.2-.6.2s-.5,0-.6-.2c-.2-.2-.3-.4-.3-.6s0-.5.3-.6c.2-.2.4-.3.6-.3s.5,0,.6.3ZM489.2,117.1c.2.2.3.4.3.6s-.1.5-.3.6c-.2.2-.4.2-.6.2s-.5,0-.6-.2c-.2-.2-.3-.4-.3-.6s0-.5.3-.6c.2-.2.4-.3.6-.3s.5,0,.6.3Z"/>
      <path class="st5" d="M495.8,110v5.7h1.3v1h-1.3v1.9h-1.2v-1.9h-4.2v-1.2l4.2-5.5h1.2ZM491.5,115.7h3.1v-4h0l-3.1,4h0Z"/>
      <path class="st5" d="M501.1,110v8.6h-1.3v-7c-.5.5-1.2.8-2,1.1v-1.3c.4,0,.8-.3,1.2-.5.4-.3.8-.5,1.1-.8h1,0Z"/>
      <path class="st5" d="M511,110l3.3,8.6h-1.4l-.8-2.2h-3.7l-.8,2.2h-1.4l3.3-8.6h1.5ZM511.7,115.3l-1.4-3.9h0l-1.4,3.9h2.9-.1Z"/>
      <path class="st5" d="M516.7,110l3,6.9h0l3-6.9h1.5v8.6h-1.3v-6.1h0l-2.6,6.1h-1.1l-2.6-6.1h0v6.1h-1.3v-8.6h1.6-.2Z"/>
    </g>
    <rect class="st5" x="378.2" y="542.2" width="181" height="3.2" rx="1.6" ry="1.6"/>
    <g>
      <path class="st5" d="M744.9,79.1v5.2c0,.2.2.3.3.3h1c.2,0,.3-.2.3-.3v-5.2c0-.2-.2-.3-.3-.3h-1c-.2,0-.3.2-.3.3Z"/>
      <path class="st5" d="M742.1,80.8v-.5c0-.2.2-.3.3-.3h1c.2,0,.3.2.3.3v4c0,.2-.2.3-.3.3h-1c-.2,0-.3-.2-.3-.3v-3.5Z"/>
      <path class="st5" d="M739.4,81.5v2.8c0,.2.2.3.3.3h1c.2,0,.3-.2.3-.3v-2.8c0-.2-.2-.3-.3-.3h-1c-.2,0-.3.2-.3.3Z"/>
      <path class="st5" d="M736.7,82.4v1.9c0,.2.2.3.3.3h1c.2,0,.3-.2.3-.3v-1.9c0-.2-.2-.3-.3-.3h-1c-.2,0-.3.2-.3.3Z"/>
      <path class="st5" d="M756.7,81.3h.2l.7-.7v-.2c-1.1-1-2.6-1.7-4.2-1.7s-3.1.6-4.2,1.7v.2l.7.7h.2c.9-.8,2-1.3,3.3-1.3s2.5.5,3.3,1.3h0Z"/>
      <path class="st5" d="M755.2,82.8h.2l.7-.7v-.2c-.7-.7-1.7-1.1-2.7-1.1s-2,.4-2.7,1.1v.2l.7.7h.2c.5-.4,1.1-.7,1.8-.7s1.3.3,1.8.7h0Z"/>
      <path class="st5" d="M754.6,83.4v.2l-1.1,1.1h-.2l-1.1-1.1v-.2c.3-.3.8-.4,1.2-.4s.9.2,1.2.4h0Z"/>
      <path class="st5" d="M761.9,84.2v-4.3h0l-1.3.9v-.8l1.3-1h.8v5.1h-.8ZM766,84.3c-.4,0-.7,0-1-.3s-.5-.5-.7-.9-.2-.9-.2-1.4h0c0-.6,0-1,.2-1.4s.4-.7.7-.9.6-.3,1-.3.7,0,1,.3.5.5.7.9.2.9.2,1.4h0c0,.6,0,1-.2,1.4s-.4.7-.7.9-.6.3-1,.3ZM766,83.6c.2,0,.4,0,.6-.2.2-.2.3-.4.4-.7v-1.1h0v-1.1c0-.3-.2-.5-.4-.7s-.4-.2-.6-.2-.4,0-.6.2c-.2.2-.3.4-.4.7v1.1h0v1.1c0,.3.2.5.4.7s.4.2.6.2ZM770.7,84.3c-.4,0-.7,0-1-.3s-.5-.5-.7-.9-.2-.9-.2-1.4h0c0-.6,0-1,.2-1.4s.4-.7.7-.9.6-.3,1-.3.7,0,1,.3.5.5.7.9.2.9.2,1.4h0c0,.6,0,1-.2,1.4s-.4.7-.7.9-.6.3-1,.3ZM770.7,83.6c.2,0,.4,0,.6-.2.2-.2.3-.4.4-.7v-1.1h0v-1.1c0-.3-.2-.5-.4-.7s-.4-.2-.6-.2-.4,0-.6.2c-.2.2-.3.4-.4.7v1.1h0v1.1c0,.3.2.5.4.7s.4.2.6.2ZM774.6,81.8c-.2,0-.4,0-.6-.2-.2,0-.3-.3-.4-.5s0-.5,0-.8h0v-.8c0-.2.2-.4.4-.5s.4-.2.6-.2.4,0,.6.2c.2,0,.3.3.4.5v.8h0v.8c0,.3-.2.4-.4.5s-.4.2-.6.2ZM774.6,81.3c.2,0,.3,0,.4-.2v-.7h0v-.7c0-.2-.2-.2-.4-.2s-.3,0-.4.2v.7h0v.7c0,.2.2.2.4.2ZM775.2,84.2h-.7l3.5-5.1h.7l-3.5,5.1ZM778.5,84.2c-.2,0-.4,0-.6-.2-.2,0-.3-.3-.4-.5s0-.5,0-.8h0v-.8c0-.3.2-.4.4-.5s.4-.2.6-.2.4,0,.6.2c.2,0,.3.3.4.5v.8h0v.8c0,.3-.2.4-.4.5s-.4.2-.6.2ZM778.5,83.8c.2,0,.3,0,.4-.2v-.7h0v-.7c0-.2-.2-.2-.4-.2s-.3,0-.4.2v.7h0v.7c0,.2.2.2.4.2Z"/>
      <g class="st7">
        <path class="st5" d="M796,78.3l.3-.5h0l-.3.5ZM796.9,79.2l.5-.3h0l-.5.3ZM796.9,84.3l.5.3h0l-.5-.3h0ZM796.8,84.4l.5.3h0l-.5-.3h0ZM796,85.2l.3.6h0l-.3-.5h0ZM795.9,85.2l.2.6h0l-.3-.6h0ZM785.7,85.4v.6h0v-.6ZM785,85.4v.6h0v-.6ZM783.6,85.2l-.3.5h0l.3-.5ZM782.8,84.4l-.5.3h0l.5-.3h0ZM782.7,84.3l-.5.3h0l.5-.3h0ZM782.7,79.3l-.5-.3h0l.6.3h0ZM782.7,79.2l-.5-.3h0l.5.3h0ZM783.5,78.4l-.3-.5h0l.3.5ZM783.6,78.3l-.3-.5h0l.3.5h0ZM785,78.1v-.6h0v.6ZM785.7,78.1v-.6h0v.6ZM784.4,78.7v-.6h0v.6ZM783.9,78.8l-.3-.5h0l.3.5ZM783.3,79.4l-.5-.3h0l.5.3ZM783.2,80h-.6.6ZM783.2,83.5h-.6.6ZM783.3,84l-.5.3h0l.5-.3ZM783.9,84.6l-.3.5h0l.3-.5ZM784.4,84.7v.6h0v-.6ZM795.2,84.7v.6h0v-.6ZM795.7,84.6l.3.5h0l-.3-.5ZM796.3,84l.5.3h0l-.5-.3ZM796.5,83.5h.6-.6ZM796.5,80h.6-.6ZM796.3,79.4l.5-.3h0l-.5.3ZM795.7,78.8l.3-.5h0l-.3.5ZM795.2,78.7v-.6h0v.6ZM797.7,80.6l.2-.6-.8-.2v.8s.6,0,.6,0ZM797.7,82.9h-.6v.8l.8-.2-.2-.6h0ZM793.9,78.1v.6h1.8l.3-.5.3-.5c-.3-.2-.6-.2-1-.2h-1.3v.6h0ZM796,78.3l-.3.5c.3,0,.5.3.6.6l.5-.3.5-.3c-.2-.5-.6-.9-1.1-1.1l-.3.5h0ZM796.9,79.2l-.5.3v1.8h1.2v-1.3c0-.4,0-.7-.2-1l-.5.3h0ZM797.1,81.3h-.6v1h1.2v-1h-.6ZM797.1,82.2h-.6v1.8l.5.3.5.3c.2-.3.2-.6.2-1v-1.3h-.6ZM796.9,84.3l-.5-.3h0l.5.4.5.3h0l-.5-.4ZM796.8,84.4l-.5-.3c0,.2-.3.4-.5.5l.3.5.3.5c.4-.2.8-.6,1-.9l-.5-.3h0ZM796,85.2l-.3-.6h0l.3.6.3.6h0l-.3-.6ZM795.9,85.2l-.2-.6h-1.8v1.2h1.3c.3,0,.7,0,1-.2l-.2-.6h0v.2h0ZM793.9,85.4v-.6h-8.3v1.2h8.3v-.6h0ZM785.7,85.4v-.6h-.7v1.2h.7v-.6h0ZM785,85.4v-.6c-.6,0-.9,0-1.1-.2l-.3.5-.3.5c.5.2,1,.3,1.6.3v-.6h0ZM783.6,85.2l.3-.5c-.2,0-.4-.3-.5-.5l-.5.3-.5.3c.2.4.6.7,1,.9l.3-.5h0ZM782.8,84.4l.5-.3h0l-.5.2-.5.3h0l.5-.2ZM782.7,84.3l.5-.3v-1.8h-1.2v1.3c0,.4,0,.7.2,1l.5-.3h0ZM782.5,82.2h.6v-1h-1.2v1h.6ZM782.5,81.3h.6v-1.8l-.6-.2-.6-.2c0,.3-.2.6-.2,1v1.3h.8ZM782.7,79.3l.5.3h0l-.5-.3-.5-.3h0l.5.3ZM782.7,79.2l.5.3c0-.2.3-.4.5-.5l-.3-.5-.3-.5c-.4.2-.7.6-1,1l.5.3h0ZM783.5,78.4l.3.5h0l-.3-.6-.3-.5h0l.3.6ZM783.6,78.3l.3.5c.2,0,.4,0,1.1-.2v-1.2c-.7,0-1.2,0-1.6.3l.3.5h0ZM785,78.1v.6h.7v-1.2h-.7v.6ZM785.7,78.1v.6h8.3v-1.2h-8.3v.6h0ZM785.7,78.7v-.6h-1.3v1.2h1.2v-.6h0ZM784.4,78.7v-.6c-.4,0-.6,0-.8.2l.3.5.3.5h.3v-.6h0ZM783.9,78.8l-.3-.5c-.4.2-.7.5-.9.9l.5.3.5.3s.2-.3.3-.3l-.3-.5h0s.2-.2.2-.2ZM783.3,79.4l-.5-.3c0,.2-.2.5-.2.8h1.2v-.2l-.5-.3h0ZM783.2,80h-.6v1.2h1.2v-1.2h-.6ZM783.1,81.3h-.6v1h1.2v-1h-.6ZM783.1,82.2h-.6v1.3h1.2v-1.3h-.6ZM783.2,83.5h-.6c0,.4,0,.6.2.8l.5-.3.5-.3v-.3h-.6ZM783.3,84l-.5.3c.2.4.5.7.9.9l.3-.5.3-.5s-.3-.2-.3-.3l-.5.3h0s-.2-.2-.2-.2ZM783.9,84.6l-.3.5c.2,0,.5.2.8.2v-1.2h-.3l-.3.5h0ZM784.4,84.7v.6h1.2v-1.2h-1.2v.6h0ZM785.7,84.8v.6h8.3v-1.2h-8.3v.6h0ZM793.9,84.8v.6h1.3v-1.2h-1.2v.6h0ZM795.2,84.7v.6c.4,0,.6,0,.8-.2l-.3-.5-.3-.5h-.3v.6h0ZM795.7,84.6l.3.5c.4-.2.7-.5.9-.9l-.5-.3-.5-.3s-.2.3-.3.3l.3.5h0s-.2.2-.2.2ZM796.3,84l.5.3c0-.2.2-.5.2-.8h-1.2v.2l.5.3h0ZM796.5,83.5h.6v-1.2h-1.2v1.2h.6ZM796.5,82.2h.6v-1h-1.2v1h.6ZM796.5,81.3h.6v-1.3h-1.2v1.3h.6ZM796.5,80h.6c0-.4,0-.6-.2-.8l-.5.3-.5.3v.3h.6ZM796.3,79.4l.5-.3c-.2-.4-.5-.7-.9-.9l-.3.5-.3.5s.3.2.3.3l.5-.3h0s.2.2.2.2ZM795.7,78.8l.3-.5c-.2,0-.5-.2-.8-.2v1.2h.3l.3-.5h0ZM795.2,78.7v-.6h-1.2v1.2h1.2v-.6h0ZM793.9,78.7v-.6h-8.3v1.2h8.3v-.6h0ZM797.7,80.6l-.2.6c.3,0,.5.3.5.6h1.2c0-.8-.6-1.6-1.4-1.8l-.2.6h.1ZM798.6,81.7h-.6c0,.3-.2.5-.5.6l.2.6.2.6c.8-.2,1.4-.9,1.4-1.8h-.7ZM797.7,82.9h.6v-2.3h-1.2v2.3h.6Z"/>
      </g>
      <rect class="st5" x="783.7" y="79.3" width="12.1" height="4.9" rx="1.5" ry="1.5"/>
    </g>
    <g class="st8">
      <path class="st5" d="M195.6,215.1c-.6,0-1,0-1.4-.3s-.6-.4-.8-.8-.3-.8-.3-1.4v-49.5h-.3l-13.5,9.3c-.5.3-.9.5-1.3.4-.4,0-.7-.2-.9-.5-.3-.3-.4-.7-.4-1.3v-4.9c0-.6,0-1,.1-1.4s.3-.7.5-1c.3-.3.6-.6,1.1-.9l12.9-9.1c.5-.4.9-.6,1.2-.7.4-.2.7-.3,1-.4h8c.6,0,1.1.1,1.4.3.4.2.6.4.8.8.2.3.3.8.3,1.4v57.6c0,.6-.1,1.1-.3,1.4-.2.3-.4.6-.8.8-.3.2-.8.3-1.4.3h-6.1.2Z"/>
      <path class="st5" d="M151.3,136.8v-15.9h3.3l4.9,12.1h0l4.9-12.2h3.3v15.9h-2.6v-11.3h-1.3l2.9-4.1-6.3,15.4h-1.9l-6.3-15.4,2.9,4.1h-1.3v11.3h-2.6.1ZM175.4,137.1c-1.1,0-2.1-.2-3-.7-.8-.5-1.5-1.2-2-2.1-.5-.9-.7-2-.7-3.2h0c0-1.3.2-2.3.7-3.3.5-.9,1.1-1.6,2-2.1.8-.5,1.8-.7,3-.7s2.1.2,3,.7,1.5,1.2,2,2.1c.5.9.7,2,.7,3.2h0c0,1.3-.2,2.4-.7,3.3-.5.9-1.1,1.6-2,2.1s-1.8.7-3,.7ZM175.4,134.8c.6,0,1.1-.1,1.5-.4s.8-.7,1-1.3.4-1.3.4-2.1h0c0-.8-.1-1.5-.4-2.1s-.6-1-1-1.3-.9-.4-1.5-.4-1.1.2-1.5.4c-.4.3-.8.7-1,1.3s-.4,1.3-.4,2.1h0c0,.8.1,1.5.4,2.1.2.6.6,1,1,1.3s.9.4,1.5.4ZM182.8,136.8v-11.7h2.7v1.8h0c.3-.6.8-1.1,1.3-1.5.6-.4,1.3-.6,2.2-.6,1.3,0,2.3.4,3,1.2.7.8,1.1,1.8,1.1,3.2v7.6h-2.7v-7c0-.8-.2-1.5-.6-1.9-.4-.5-1-.7-1.8-.7s-1,0-1.4.4c-.4.2-.7.6-.9,1s-.3.9-.3,1.5v6.8h-2.7,0ZM204.2,137.1c-.8,0-1.5-.1-2.1-.3s-1.1-.5-1.6-.9-.8-.9-1-1.4c-.2-.6-.4-1.2-.4-1.9h0c0-.1,2.8-.1,2.8-.1h0c0,.5.1.9.3,1.2s.4.6.8.8c.3.2.7.3,1.2.3.8,0,1.4-.2,1.8-.7.4-.5.6-1.1.6-2v-11h2.8v11.1c0,1.1-.2,2-.6,2.7-.4.8-1,1.4-1.8,1.8-.8.4-1.7.6-2.8.6h0v-.2h0ZM216,137.1c-.9,0-1.6-.2-2.2-.5-.6-.4-1.1-.9-1.4-1.5-.3-.6-.5-1.4-.5-2.3v-7.6h2.7v7c0,.8.2,1.5.6,1.9.4.4,1,.7,1.8.7s.7,0,1.1-.2c.3-.1.6-.3.8-.6s.4-.6.5-.9c.1-.4.2-.7.2-1.2v-6.8h2.7v11.7h-2.7v-1.8h0c-.2.4-.5.8-.8,1.1s-.7.6-1.2.7-1,.2-1.6.2h0ZM224.6,136.8v-11.7h2.7v1.8h0c.3-.6.8-1.1,1.3-1.5.6-.4,1.3-.6,2.2-.6,1.3,0,2.3.4,3,1.2.7.8,1.1,1.8,1.1,3.2v7.6h-2.7v-7c0-.8-.2-1.5-.6-1.9-.4-.5-1-.7-1.8-.7s-1,0-1.4.4c-.4.2-.7.6-.9,1s-.3.9-.3,1.5v6.8h-2.7,0Z"/>
    </g>
    <g>
      <rect class="st2" x="713.2" y="124.5" width="86.5" height="86.5" rx="19.1" ry="19.1"/>
      <rect class="st2" x="614.2" y="124.5" width="86.5" height="86.5" rx="19.1" ry="19.1"/>
      <rect class="st2" x="614.2" y="221.5" width="86.5" height="86.5" rx="19.1" ry="19.1"/>
      <path class="st2" d="M734.3,221.5h0c10.6,0,19.1,8.6,19.1,19.1v48.3c0,10.6-8.6,19.1-19.1,19.1h0c-10.6,0-19.1-8.6-19.1-19.1v-48.3c0-10.6,8.6-19.1,19.1-19.1h0Z"/>
      <path class="st2" d="M734.3,321.9h0c10.6,0,19.1,8.6,19.1,19.1h0c0,10.6-8.6,19.1-19.1,19.1h0c-10.6,0-19.1-8.6-19.1-19.1h0c0-10.6,8.6-19.1,19.1-19.1Z"/>
      <path class="st2" d="M734.3,367.9h0c10.6,0,19.1,8.6,19.1,19.1h0c0,10.6-8.6,19.1-19.1,19.1h0c-10.6,0-19.1-8.6-19.1-19.1h0c0-10.6,8.6-19.1,19.1-19.1Z"/>
      <path class="st2" d="M781.3,221.5h0c10.6,0,19.1,8.6,19.1,19.1v48.3c0,10.6-8.6,19.1-19.1,19.1h0c-10.6,0-19.1-8.6-19.1-19.1v-48.3c0-10.6,8.6-19.1,19.1-19.1h0Z"/>
      <path class="st2" d="M781.3,322.3h0c10.6,0,19.1,8.6,19.1,19.1h0c0,10.6-8.6,19.1-19.1,19.1h0c-10.6,0-19.1-8.6-19.1-19.1h0c0-10.6,8.6-19.1,19.1-19.1Z"/>
      <rect class="st2" x="614.2" y="322.5" width="86.5" height="86.5" rx="19.1" ry="19.1"/>
    </g>
  </g>
  <g id="_手机外壳">
    <path id="_外壳颜色" class="st6" d="M800.8,44.8H219.2c0-1.5-1.2-2.6-2.6-2.6h-24.3c-1.4,0-2.6,1.2-2.6,2.6h-6.9v-.4c0-1.2-1-2.2-2.2-2.2h-25.2c-1.2,0-2.2,1-2.2,2.2v.4h-17.7c-22.1,0-39.9,17.9-39.9,40v.8h0c-1.2,0-2.2,1-2.2,2.2v32.1c0,1.2,1,2.2,2.2,2.2h0v416.3c0,22.1,17.9,40,39.9,40h665.2c22.1,0,40-17.9,40-40V84.7c0-22.1-17.9-40-40-40h0ZM817.6,534c0,10.4-8.4,18.8-18.8,18.8H137.6c-10.4,0-18.8-8.4-18.8-18.8V89c0-10.4,8.4-18.8,18.8-18.8h661.2c10.4,0,18.8,8.4,18.8,18.8v445h0Z"/>
    <path id="_屏幕玻璃" class="st0" d="M798.4,46.5H137.9c-22.1,0-39.9,17.9-39.9,40v450.1c0,22.1,17.9,40,39.9,40h660.5c22.1,0,40-17.9,40-40V86.4c0-22.1-17.9-40-40-40h0ZM817.6,534c0,10.4-8.4,18.8-18.8,18.8H137.6c-10.4,0-18.8-8.4-18.8-18.8V89c0-10.4,8.4-18.8,18.8-18.8h661.2c10.4,0,18.8,8.4,18.8,18.8v445h0Z"/>
  </g>
</svg>