<?xml version="1.0" encoding="UTF-8"?>
<svg id="iphone" xmlns="http://www.w3.org/2000/svg" xmlns:xlink="http://www.w3.org/1999/xlink" version="1.1" viewBox="0 0 395.2 665.5">
  <!-- Generator: Adobe Illustrator 29.1.0, SVG Export Plug-In . SVG Version: 2.1.0 Build 142)  -->
  <defs>
    <style>
      .st0, .st1, .st2, .st3, .st4, .st5, .st6 {
        isolation: isolate;
      }

      .st0, .st7 {
        fill: #f7f8f8;
      }

      .st8 {
        fill: #9fa0a0;
      }

      .st9 {
        fill: url(#_未命名的渐变);
      }

      .st10, .st3 {
        fill: #231815;
      }

      .st11, .st4, .st5, .st6 {
        fill: #fff;
      }

      .st2 {
        fill: none;
        stroke: #fff;
      }

      .st2, .st12, .st4 {
        opacity: .3;
      }

      .st13, .st3, .st5 {
        opacity: .6;
      }

      .st14 {
        fill: #595757;
      }

      .st6 {
        opacity: .4;
      }
    </style>
    <radialGradient id="_未命名的渐变" data-name="未命名的渐变" cx="222.4" cy="798.1" fx="222.4" fy="798.1" r="3.7" gradientTransform="translate(0 -704)" gradientUnits="userSpaceOnUse">
      <stop offset="0" stop-color="#040000"/>
      <stop offset=".7" stop-color="#fff" stop-opacity=".3"/>
      <stop offset="1" stop-color="#121210"/>
    </radialGradient>
  </defs>
  <g id="_投影" data-name="投影" class="st12">
    <image class="st1" width="345" height="605" transform="translate(25 46.5)" xlink:href="../../../../苹果设备矢量图/倒出/iphone投影.png"/>
  </g>
  <rect id="_背景蒙版" class="st14" x="78.2" y="74.6" width="236.8" height="514.9" rx="32.2" ry="32.2"/>
  <g id="_屏幕ui">
    <path class="st11" d="M237.6,581.8h-81.9c-.8,0-1.5.7-1.5,1.5h0c0,.8.7,1.5,1.5,1.5h81.9c.8,0,1.5-.7,1.5-1.5h0c0-.8-.7-1.5-1.5-1.5Z"/>
    <rect class="st4" x="258.6" y="102.2" width="28.3" height="1.4" rx=".4" ry=".4"/>
    <rect class="st2" x="280.1" y="90.6" width="14.1" height="7.1" rx="2.1" ry="2.1"/>
    <path class="st6" d="M295.1,93v2.4c.5-.2.8-.7.8-1.2s-.3-1-.8-1.2"/>
    <rect class="st11" x="280.9" y="91.4" width="12.4" height="5.3" rx="1.6" ry="1.6"/>
    <path class="st11" d="M269,95.9c.8-.8,2-.8,2.8,0v.4l-1.3,1.4h-.2l-1.3-1.4v-.4h0ZM267.2,94.2c1.8-1.7,4.6-1.7,6.4,0v.4l-.8.8h-.3c-.6-.5-1.4-.8-2.2-.8s-1.6.3-2.2.8h-.3l-.8-.8v-.4h.2,0ZM265.5,92.5c2.8-2.5,7.2-2.5,10,0h0v.2l-.8.7h-.3c-1.1-1-2.5-1.5-3.9-1.5s-2.9.5-3.9,1.5h-.3l-.8-.7h0v-.2h0Z"/>
    <path class="st11" d="M250.9,94.9c.4,0,.6.3.6.7v1.3c0,.4-.3.7-.6.7h-.6c-.4,0-.6-.3-.6-.7v-1.3c0-.4.3-.7.6-.7h.6ZM254.1,93.5c.4,0,.6.3.6.7v2.8c0,.4-.3.7-.6.7h-.6c-.4,0-.6-.3-.6-.7v-2.8c0-.4.3-.7.6-.7h.6ZM257.2,92c.4,0,.6.3.6.7v4.3c0,.4-.3.7-.6.7h-.6c-.4,0-.6-.3-.6-.7v-4.3c0-.4.3-.7.6-.7h.6ZM260.4,90.6c.4,0,.6.3.6.7v5.7c0,.4-.3.7-.6.7h-.6c-.4,0-.6-.3-.6-.7v-5.7c0-.4.3-.7.6-.7h.6Z"/>
    <g>
      <path class="st7" d="M126.3,91.6v.9h-3.1l-.2,1.8h0c.2-.2.4-.3.7-.4h.8c.6,0,1.1.2,1.5.6s.6.9.6,1.6-.2,1.2-.8,1.6c-.5.4-1,.6-1.7.6s-1.1-.2-1.5-.5c-.5-.3-.7-.8-.8-1.4h1c0,.3.2.6.4.8.2,0,.5.2.8.2s.7,0,1-.3.4-.6.4-.9,0-.8-.3-1c-.2-.2-.5-.4-.9-.4h-.7c-.2,0-.4.3-.5.5h-1l.3-3.6h4,0Z"/>
      <path class="st7" d="M132.4,92.1c.5.4.8.9.9,1.6h-1.1c0-.4-.3-.7-.6-.9-.3-.2-.7-.3-1.2-.3s-1.1.2-1.4.6c-.4.4-.6,1-.6,1.8s.2,1.3.5,1.8c.4.4.9.7,1.7.7h.9c.2,0,.5-.2.7-.3v-1.3h-1.7v-.9h2.8v2.7c-.3.3-.7.5-1.2.6s-1,.2-1.6.2c-1,0-1.8-.3-2.4-1-.5-.6-.8-1.4-.8-2.3s.3-1.8.8-2.4c.6-.7,1.3-1,2.3-1s1.5.2,1.9.6h.1v-.2h0Z"/>
    </g>
    <g>
      <circle class="st3" cx="270.9" cy="542.9" r="17.5"/>
      <circle class="st3" cx="122.7" cy="542.9" r="17.5"/>
      <path class="st0" d="M277.3,541.1c.3,0,.5,0,.7-.3.2-.2.3-.5.3-.7s-.1-.5-.3-.7c-.2-.2-.5-.3-.7-.3s-.5,0-.7.3-.3.5-.3.7.1.5.3.7.5.3.7.3ZM263.9,550.1c-.9,0-1.5-.2-2-.7s-.7-1.1-.7-2v-8.2c0-.8.2-1.5.7-2s1.1-.7,2-.7h2.8c.1,0,.2-.2.4-.3l.6-.6c.1,0,.3-.3.4-.3s.3-.2.5-.2h4.7c.2,0,.4,0,.5.2.1,0,.3.2.4.3l.6.6c.1,0,.3.2.4.3s.2,0,.4,0h2.4c.9,0,1.5.2,2,.7s.7,1.1.7,2v8.2c0,.9-.2,1.5-.7,2s-1.1.7-2,.7h-14.1,0ZM270.9,547.5c.6,0,1.1,0,1.6-.3s.9-.5,1.3-.9.7-.8.9-1.3c.2-.5.3-1,.3-1.6s-.1-1.1-.3-1.6c-.2-.5-.5-1-.9-1.3s-.8-.7-1.3-.9-1-.3-1.6-.3-1.1,0-1.6.3-1,.5-1.3.9c-.4.4-.7.8-.9,1.3-.2.5-.3,1-.3,1.6s.1,1.1.3,1.6c.2.5.5,1,.9,1.3s.8.7,1.3.9,1,.3,1.6.3ZM270.9,545.9c-.4,0-.7,0-1-.2-.3,0-.6-.3-.8-.6-.2-.2-.4-.5-.6-.8-.1-.3-.2-.7-.2-1s0-.7.2-1c.1-.3.3-.6.6-.8s.5-.4.8-.6c.3,0,.6-.2,1-.2s.7,0,1,.2.6.3.8.6c.2.2.4.5.6.8.1.3.2.7.2,1s0,.7-.2,1c-.1.3-.3.6-.6.8-.2.2-.5.4-.8.6-.3,0-.6.2-1,.2Z"/>
      <path class="st0" d="M118.5,535.2v-.2c0-1.1.5-1.7,1.6-1.7h4.7c1.1,0,1.6.5,1.6,1.7v.2h-7.9,0ZM121.7,552c-.5,0-.9,0-1.2-.4-.3-.3-.4-.7-.4-1.2v-10.1c0-.3-.2-.6-.4-.8l-.4-.7c-.2-.3-.3-.6-.5-.9,0-.3-.2-.6-.2-1v-.6h7.9v.6c0,.4,0,.7-.2,1,0,.3-.3.6-.5.9l-.4.7c-.2.2-.3.5-.4.8v10.1c0,.5,0,1-.4,1.2-.3.3-.7.4-1.2.4h-1.7ZM121,542v2.5c0,.4,0,.7.4,1s.6.4,1,.4.5,0,.7-.2c.2,0,.4-.3.5-.5s.2-.5.2-.7v-2.5c0-.3,0-.5-.2-.7,0-.2-.3-.4-.5-.5s-.4-.2-.7-.2-.8,0-1,.4c-.3.3-.4.6-.4,1h0ZM122.4,545.4c-.3,0-.5,0-.7-.3-.2-.2-.3-.4-.3-.7s0-.5.3-.7c.2-.2.4-.3.7-.3s.5,0,.7.3.3.4.3.7,0,.5-.3.7-.4.3-.7.3h0Z"/>
    </g>
    <g>
      <path class="st5" d="M159.8,145.4h-39.4c-.9,0-1.7.7-1.7,1.6l-1.9,113.9c0,.9.7,1.7,1.7,1.7h9.9c.9,0,1.7-.8,1.7-1.7v-16c0-5.8,4.7-10.6,10.6-10.6h0c6.2,0,11.1,5,11.1,11.1v83.4c0,6.3-5.1,11.3-11.3,11.3h0c-6.3,0-11.3-5.1-11.3-11.3v-34.6c0-.9-.8-1.7-1.7-1.7h-9c-.9,0-1.7.8-1.7,1.7v37.3c0,11,9,20,20,20h8.8c10.6,0,19.1-8.5,19.1-19.1v-91.4c0-11.1-9-20-20-20h-3.7c-.2,0-3.2.7-3.3.7l-2.8,1.1c-.3,0-2,1.2-2.2,1.4l-1.7,1.9c-.2.2-.6,0-.6-.2l.6-67.3c0-.9.8-1.6,1.7-1.6h27.1c.9,0,1.7-.8,1.7-1.7v-8.3c0-.9-.8-1.7-1.7-1.7h0Z"/>
      <path class="st5" d="M186.8,159.4l16-13.6c.3-.3.7-.4,1.2-.4h11.5c1,0,1.8.8,1.8,1.8v202.7c0,1-.8,1.8-1.8,1.8h-10.3c-1,0-1.8-.8-1.8-1.8v-189.5c0-.4-.5-.6-.8-.3l-12.9,12.9c-1.1,1.1-3,.4-3.1-1.2l-.4-10.9c0-.6.2-1.1.6-1.4h0Z"/>
      <g class="st13">
        <path class="st11" d="M251.7,353.7c-13.9,0-25.2-11.3-25.2-25.2v-158.9c0-13.9,11.3-25.2,25.2-25.2s25.3,11.3,25.3,25.2v158.9c0,13.9-11.3,25.2-25.2,25.2h-.1ZM251.7,157.3c-6.8,0-12.2,5.5-12.2,12.2v158.9c0,6.8,5.5,12.2,12.2,12.2s12.3-5.5,12.3-12.2v-158.9c0-6.8-5.5-12.2-12.2-12.2h-.1Z"/>
      </g>
      <circle class="st5" cx="179.8" cy="205.3" r="7.9"/>
      <circle class="st5" cx="179.8" cy="292.2" r="7.9"/>
    </g>
    <g>
      <path class="st11" d="M145.3,120.7l3.3,8.6h-1.4l-.8-2.2h-3.7l-.8,2.2h-1.4l3.3-8.6h1.5,0ZM146,125.9l-1.4-3.9h0l-1.4,3.9h2.9-.1Z"/>
      <path class="st11" d="M154.6,123.8c.5.6.7,1.4.7,2.3s-.2,1.7-.7,2.3-1.2,1-2.1,1-1.4-.4-1.9-1.1v3.3h-1.3v-8.6h1.2v.7c.4-.6,1.1-.9,1.9-.9s1.6.3,2.1,1h.1ZM151,124.6c-.3.4-.4.9-.4,1.5h0c0,.8.2,1.3.5,1.7.3.4.7.6,1.1.6s1.1-.2,1.4-.6c.3-.4.4-.9.4-1.6s-.1-1.2-.4-1.6c-.3-.5-.8-.7-1.4-.7s-1,.2-1.3.7h0Z"/>
      <path class="st11" d="M160.2,123v1.3h-.9c-.3,0-.7.2-1,.5s-.5.8-.5,1.3v3.3h-1.3v-6.2h1.3v.9c.2-.3.4-.6.6-.8.3-.2.6-.3,1-.3s.6,0,.8.2h0v-.2h0Z"/>
      <path class="st11" d="M168,120.7v8.6h-1.3v-7c-.5.5-1.2.8-2,1.1v-1.3c.4,0,.8-.3,1.2-.5.4-.3.8-.5,1.1-.8h1Z"/>
      <path class="st11" d="M178,121.1h1v3.9h0c.2-.3.4-.6.6-.9l2.5-3h1.3l-2.9,3.4,3.1,4.7h-1.2l-2.7-4-.8.9v3.1h-1v-8.1h0Z"/>
      <path class="st11" d="M186.3,129.2v-3.4l-2.6-4.7h1.2l1.1,2.2c.3.6.6,1.1.8,1.7h0c.2-.5.5-1.1.8-1.7l1.2-2.2h1.2l-2.7,4.6v3.4h-1.1.1Z"/>
      <path class="st11" d="M197.4,125.1c0,2.8-1.7,4.3-3.8,4.3s-3.6-1.7-3.6-4.1,1.6-4.2,3.8-4.2,3.6,1.7,3.6,4.1h0ZM191.2,125.2c0,1.7.9,3.3,2.6,3.3s2.6-1.5,2.6-3.4-.8-3.3-2.6-3.3-2.6,1.6-2.6,3.4h0Z"/>
      <path class="st11" d="M207.8,121.6c.5.7.8,1.8.8,3.1s-.3,2.5-.9,3.4c-.6.9-1.4,1.3-2.4,1.3-1.7,0-2.6-.8-2.8-2.3h1.3c.2.8.7,1.2,1.6,1.2s1.1-.3,1.4-.9c.3-.6.5-1.2.5-2.1s0,0,0-.2h0c-.2.4-.6.7-.9.8-.4.2-.7.3-1.2.3-.8,0-1.5-.3-2-.8s-.7-1.2-.7-2.1.3-1.6.9-2.1c.6-.6,1.3-.8,2.1-.8s1.8.4,2.4,1.1h-.1ZM204.1,122.1c-.3.3-.5.8-.5,1.3s.2,1,.5,1.3.7.5,1.3.5,1-.2,1.3-.5.5-.8.5-1.3-.2-1-.5-1.3-.7-.5-1.2-.5-1,.2-1.3.5h-.1Z"/>
      <path class="st11" d="M211.3,123.3c.2.2.3.4.3.6s-.1.5-.3.6c-.2.2-.4.2-.6.2s-.5,0-.6-.2c-.2-.2-.3-.4-.3-.6s0-.5.3-.6c.2-.2.4-.3.6-.3s.5,0,.6.3ZM211.3,127.7c.2.2.3.4.3.6s-.1.5-.3.6c-.2.2-.4.2-.6.2s-.5,0-.6-.2c-.2-.2-.3-.4-.3-.6s0-.5.3-.6c.2-.2.4-.3.6-.3s.5,0,.6.3Z"/>
      <path class="st11" d="M218,120.7v5.7h1.3v1h-1.3v1.9h-1.2v-1.9h-4.2v-1.2l4.2-5.5s1.2,0,1.2,0ZM213.6,126.3h3.1v-4h0l-3.1,4Z"/>
      <path class="st11" d="M223.3,120.7v8.6h-1.3v-7c-.5.5-1.2.8-2,1.1v-1.3c.4,0,.8-.3,1.2-.5.4-.3.8-.5,1.1-.8h1Z"/>
      <path class="st11" d="M233.2,120.7l3.3,8.6h-1.4l-.8-2.2h-3.7l-.8,2.2h-1.4l3.3-8.6h1.5,0ZM233.9,125.9l-1.4-3.9h0l-1.4,3.9h2.9-.1Z"/>
      <path class="st11" d="M238.9,120.7l3,6.9h0l3-6.9h1.6v8.6h-1.3v-6.1h0l-2.6,6.1h-1.1l-2.6-6.1h0v6.1h-1.3v-8.6h1.6-.3,0Z"/>
    </g>
  </g>
  <g id="_外壳">
    <path id="_外壳颜色1" class="st8" d="M323.5,231.6h-.9v-119.6c0-25.1-20.4-45.5-45.5-45.5H114.7c-25.1,0-45.5,20.4-45.5,45.5v63.1c0,.2-.2.4-.4.4h0c-1,0-1.8.8-1.8,1.8v20.6c0,1,.8,1.8,1.8,1.8h0c.2,0,.4.2.4.4v18.2c0,.2-.2.4-.4.4h0c-1,0-1.8.8-1.8,1.8v35.8c0,1,.8,1.8,1.8,1.8h0c.2,0,.4.2.4.4v9.9c0,.2-.2.4-.4.4h0c-1,0-1.8.8-1.8,1.8v35.8c0,1,.8,1.8,1.8,1.8h0c.2,0,.4.2.4.4v244.6c0,25.1,20.4,45.5,45.5,45.5h162.5c25.1,0,45.5-20.4,45.5-45.5v-258.2h.9c1,0,1.8-.8,1.8-1.8v-59.8c0-1-.8-1.8-1.8-1.8h-.1ZM315.1,551.2c0,21.2-17.1,38.3-38.3,38.3H116.6c-21.2,0-38.3-17.2-38.3-38.3V112.9c0-21.2,17.2-38.3,38.3-38.3h160.2c21.2,0,38.3,17.2,38.3,38.3v438.3h0Z"/>
    <path id="_手机屏幕黑色边框" class="st10" d="M276.6,69.6H115.2c-23.7,0-43,19.2-43,42.9v439.8c0,23.7,19.2,43,42.9,43h161.4c23.7,0,43-19.2,43-43V112.6c0-23.7-19.2-43-43-43h.1ZM315.1,551.2c0,21.2-17.1,38.3-38.3,38.3H116.6c-21.2,0-38.3-17.2-38.3-38.3V112.9c0-21.2,17.2-38.3,38.3-38.3h160.2c21.2,0,38.3,17.2,38.3,38.3v438.3h0Z"/>
    <g id="_灵动岛">
      <path class="st10" d="M171.3,84.1h52.5c5.7,0,10.3,4.6,10.3,10.3h0c0,5.7-4.6,10.3-10.3,10.3h-52.5c-5.7,0-10.3-4.6-10.3-10.3h0c0-5.7,4.6-10.3,10.3-10.3Z"/>
      <circle class="st9" cx="222.4" cy="94.1" r="3.7"/>
    </g>
  </g>
</svg>