<?xml version="1.0" encoding="UTF-8"?>
<svg id="apple_watch" xmlns="http://www.w3.org/2000/svg" xmlns:xlink="http://www.w3.org/1999/xlink" version="1.1" viewBox="0 0 934 598.6">
  <!-- Generator: Adobe Illustrator 29.1.0, SVG Export Plug-In . SVG Version: 2.1.0 Build 142)  -->
  <defs>
    <style>
      .st0 {
        fill: #cee29f;
      }

      .st1 {
        fill: url(#_未命名的渐变_2);
      }

      .st2 {
        fill: #b39c6f;
      }

      .st3 {
        fill: url(#_未命名的渐变);
      }

      .st4 {
        fill: #040000;
      }

      .st5, .st6 {
        isolation: isolate;
      }

      .st7, .st6 {
        fill: #fff;
      }

      .st8, .st6 {
        opacity: .6;
      }
    </style>
    <radialGradient id="_未命名的渐变" data-name="未命名的渐变" cx="495.6" cy="278.4" fx="531.5" fy="249.6" r="122.4" gradientTransform="translate(0 353.9) scale(1 -1)" gradientUnits="userSpaceOnUse">
      <stop offset="0" stop-color="#a3a3a3"/>
      <stop offset="1" stop-color="#231815"/>
    </radialGradient>
    <radialGradient id="_未命名的渐变_2" data-name="未命名的渐变 2" cx="451.9" cy="-93.8" fx="472.6" fy="-185.7" r="94.2" gradientTransform="translate(0 353.9) scale(1 -1)" gradientUnits="userSpaceOnUse">
      <stop offset="0" stop-color="#a3a3a3"/>
      <stop offset="1" stop-color="#231815"/>
    </radialGradient>
  </defs>
  <g id="_投影">
    <image class="st5" width="341" height="550" transform="translate(282 17.6)" xlink:href="iwatch投影.png"/>
  </g>
  <rect id="_背景蒙版" class="st0" x="324.5" y="141.1" width="241.1" height="291.5" rx="58.1" ry="58.1"/>
  <g id="_屏幕ui">
    <path class="st6" d="M408.4,183.2h-39.5c-.9,0-1.6.7-1.7,1.6l-1.9,113.9c0,.9.7,1.7,1.7,1.7h9.9c.9,0,1.7-.8,1.7-1.7v-16c0-5.8,4.7-10.5,10.5-10.5h0c6.2,0,11.1,5,11.1,11.1v83.4c0,6.3-5.1,11.3-11.3,11.3h0c-6.3,0-11.3-5.1-11.3-11.3v-34.6c0-.9-.8-1.7-1.7-1.7h-9c-.9,0-1.7.8-1.7,1.7v37.3c0,11,9,20,20,20h8.8c10.5,0,19.1-8.5,19.1-19.1v-91.4c0-11.1-9-20-20-20h-3.7c-.2,0-3.2.7-3.3.7l-2.8,1.1c-.3,0-2,1.2-2.2,1.4l-1.7,1.9c-.2.2-.6,0-.6-.2l.6-67.3c0-.9.8-1.6,1.7-1.6h27.1c.9,0,1.7-.8,1.7-1.7v-8.3c0-.9-.8-1.7-1.7-1.7h.2,0Z"/>
    <path class="st6" d="M435.3,197.2l16-13.6c.3-.3.7-.4,1.2-.4h11.5c1,0,1.8.8,1.8,1.8v202.7c0,1-.8,1.8-1.8,1.8h-10.3c-1,0-1.8-.8-1.8-1.8v-189.5c0-.4-.5-.6-.8-.3l-12.9,12.9c-1.1,1.1-3,.4-3.1-1.2l-.4-10.9c0-.6.2-1.1.6-1.4h0Z"/>
    <g class="st8">
      <path class="st7" d="M500.2,391.5c-13.9,0-25.2-11.3-25.2-25.2v-158.9c0-13.9,11.3-25.2,25.2-25.2s25.2,11.3,25.2,25.2v158.9c0,13.9-11.3,25.2-25.2,25.2ZM500.2,195c-6.8,0-12.2,5.5-12.2,12.2v158.9c0,6.8,5.5,12.2,12.2,12.2s12.2-5.5,12.2-12.2v-158.9c0-6.8-5.5-12.2-12.2-12.2h0Z"/>
    </g>
    <circle class="st6" cx="428.3" cy="243.1" r="7.9"/>
    <circle class="st6" cx="428.3" cy="330" r="7.9"/>
  </g>
  <g id="_外壳">
    <path class="st3" d="M551.6,147c-9.5-7.5-20.5-21.5-24.5-32s-5.5-33.5-8-46-7.5-14.5-21.5-17.5c-11-2.4-38.4-3.5-49.6-3.8v-.2h-4.9v.2c-11.2.4-38.6,1.5-49.6,3.8-14,3-19,5-21.5,17.5s-4,35.5-8,46-15,24.5-24.5,32,2.5,5.5,2.5,5.5l24.5-14.5,60.7.6v.4l18.4-.2,18.4.2v-.4l60.6-.6,24.5,14.5s12,2,2.5-5.5h0Z"/>
    <path class="st1" d="M551.6,425.2c-9.5,7.5-20.5,21.5-24.5,32s-5.5,33.5-8,46-7.5,14.5-21.5,17.5c-11,2.4-38.4,3.5-49.6,3.8v.2h-4.9v-.2c-11.2-.4-38.6-1.5-49.6-3.8-14-3-19-5-21.5-17.5s-4-35.5-8-46-15-24.5-24.5-32,2.5-5.5,2.5-5.5l24.5,14.5,60.7-.6v-.4l18.4.2,18.4-.2v.4l60.6.6,24.5-14.5s12-2,2.5,5.5h0Z"/>
    <path id="_外壳颜色" class="st2" d="M578.4,200h-1.2c-1.5,0-3,.5-4.2,1.3v-5.8c0-35.6-28.8-64.4-64.4-64.4h-127.1c-35.6,0-64.4,28.8-64.4,64.4v182.6c0,35.6,28.8,64.4,64.4,64.4h127.1c35.6,0,64.4-28.8,64.4-64.4v-125.1c1.2.8,2.6,1.3,4.2,1.3h1.2c4,0,7.2-3.2,7.2-7.2v-40.1c0-4-3.2-7.2-7.2-7.2h0v.2ZM557.6,374.5c0,27.6-22.5,50.1-50.1,50.1h-124.9c-27.6,0-50.1-22.5-50.1-50.1v-175.3c0-27.6,22.5-50.1,50.1-50.1h124.9c27.6,0,50.1,22.5,50.1,50.1v175.3Z"/>
    <path class="st4" d="M507.5,432.6h-124.9c-32,0-58.1-26.1-58.1-58.1v-175.3c0-32,26.1-58.1,58.1-58.1h124.9c32,0,58.1,26.1,58.1,58.1v175.3c0,32-26.1,58.1-58.1,58.1h0ZM382.6,149.1c-27.6,0-50.1,22.5-50.1,50.1v175.3c0,27.6,22.5,50.1,50.1,50.1h124.9c27.6,0,50.1-22.5,50.1-50.1v-175.3c0-27.6-22.5-50.1-50.1-50.1h-124.9,0Z"/>
  </g>
</svg>