<?xml version="1.0" encoding="UTF-8"?>
<svg id="macbook" xmlns="http://www.w3.org/2000/svg" xmlns:xlink="http://www.w3.org/1999/xlink" version="1.1" viewBox="0 0 988.7 639.6">
  <!-- Generator: Adobe Illustrator 29.1.0, SVG Export Plug-In . SVG Version: 2.1.0 Build 142)  -->
  <defs>
    <style>
      .st0 {
        fill: #e0e0e0;
      }

      .st1, .st2, .st3, .st4 {
        fill: #040000;
      }

      .st5, .st2, .st3, .st4, .st6 {
        isolation: isolate;
      }

      .st2 {
        opacity: .1;
      }

      .st3, .st7 {
        opacity: .2;
      }

      .st4 {
        opacity: .4;
      }

      .st8, .st6 {
        fill: #fff;
      }

      .st9 {
        fill: #282828;
      }

      .st10 {
        fill: #506182;
      }

      .st11 {
        fill: #fce695;
      }

      .st6 {
        opacity: .3;
      }
    </style>
  </defs>
  <g id="_投影" class="st7">
    <image class="st5" width="975" height="94" transform="translate(7 545.6)" xlink:href="macbook投影.png"/>
  </g>
  <path id="_背景蒙版" class="st11" d="M156,52.4h680c16.8,0,30.3,13.6,30.3,30.3v458c0,11.7-9.5,21.2-21.2,21.2H146.9c-11.7,0-21.2-9.5-21.2-21.2V82.8c0-16.8,13.6-30.3,30.4-30.3h0Z"/>
  <g id="_屏幕ui">
    <g>
      <rect class="st3" x="138.1" y="62.3" width="718" height="19.5"/>
      <path class="st8" d="M767.6,72v6c0,.2.2.3.4.4h1.2c.2,0,.3-.2.4-.4v-6c0-.2-.2-.3-.4-.4h-1.2c-.2,0-.3.2-.4.4Z"/>
      <path class="st8" d="M764.4,74v-.6c0-.2.2-.3.4-.4h1.2c.2,0,.3.2.4.4v4.6c0,.2-.2.3-.4.4h-1.2c-.2,0-.3-.2-.4-.4v-4Z"/>
      <path class="st8" d="M761.4,74.7v3.3c0,.2.2.3.4.4h1.2c.2,0,.3-.2.4-.4v-3.3c0-.2-.2-.3-.4-.4h-1.2c-.2,0-.3.2-.4.4Z"/>
      <path class="st8" d="M758.3,75.7v2.2c0,.2.2.3.4.4h1.2c.2,0,.3-.2.4-.4v-2.2c0-.2-.2-.3-.4-.4h-1.2c-.2,0-.3.2-.4.4Z"/>
      <path class="st8" d="M780.8,74.5h.3l.7-.7v-.3c-1.2-1.2-2.9-1.9-4.7-1.9s-3.5.7-4.7,1.9v.3l.7.7h.3c1-.9,2.3-1.5,3.8-1.5s2.8.6,3.8,1.5h-.2Z"/>
      <path class="st8" d="M779.2,76.1h.3l.7-.7v-.3c-.8-.7-1.9-1.2-3.1-1.2s-2.3.4-3.1,1.2v.3l.7.7h.3c.5-.5,1.3-.8,2.1-.8s1.5.3,2.1.8Z"/>
      <path class="st8" d="M778.5,76.8v.3l-1.3,1.3h-.3l-1.3-1.3v-.3c.4-.3.9-.5,1.4-.5s1,.2,1.4.5h0Z"/>
      <path class="st8" d="M786.7,77.7v-4.9h0l-1.5,1v-.9l1.5-1.1h.9v5.8h-.9ZM791.3,77.9c-.5,0-.8,0-1.2-.4s-.6-.6-.7-1.1c-.2-.4-.3-1-.3-1.6h0c0-.6,0-1.2.3-1.6.2-.4.4-.8.7-1.1.3-.2.7-.4,1.2-.4s.8,0,1.2.4.6.6.7,1.1c.2.4.3,1,.3,1.6h0c0,.6,0,1.2-.3,1.6-.2.4-.4.8-.7,1.1-.3.2-.7.4-1.2.4ZM791.3,77.1c.3,0,.5,0,.7-.3.2-.2.3-.4.4-.8,0-.3.2-.8.2-1.2h0c0-.5,0-.9-.2-1.2,0-.3-.2-.6-.4-.8s-.4-.3-.7-.3-.5,0-.7.3c-.2.2-.3.4-.4.8s0,.7,0,1.2h0c0,.5,0,.9,0,1.2,0,.3.2.6.4.8.2.2.4.3.7.3ZM796.6,77.9c-.5,0-.8,0-1.2-.4s-.6-.6-.7-1.1c-.2-.4-.3-1-.3-1.6h0c0-.6,0-1.2.3-1.6.2-.4.4-.8.7-1.1.3-.2.7-.4,1.2-.4s.8,0,1.2.4.6.6.7,1.1c.2.4.3,1,.3,1.6h0c0,.6,0,1.2-.3,1.6-.2.4-.4.8-.7,1.1-.3.2-.7.4-1.2.4ZM796.6,77.1c.3,0,.5,0,.7-.3.2-.2.3-.4.4-.8,0-.3.2-.8.2-1.2h0c0-.5,0-.9-.2-1.2,0-.3-.2-.6-.4-.8s-.4-.3-.7-.3-.5,0-.7.3c-.2.2-.3.4-.4.8s0,.7,0,1.2h0c0,.5,0,.9,0,1.2,0,.3.2.6.4.8.2.2.4.3.7.3ZM801.1,75c-.3,0-.5,0-.7-.2-.2,0-.3-.3-.4-.6,0-.2-.2-.5-.2-.8h0c0-.3,0-.6.2-.8,0-.2.2-.4.4-.5s.4-.2.7-.2.5,0,.7.2c.2,0,.3.3.4.5,0,.2.2.5.2.8h0c0,.3,0,.6-.2.8,0,.2-.2.4-.4.6-.2,0-.4.2-.7.2h0ZM801.1,74.5c.2,0,.3,0,.4-.3,0-.2.2-.4.2-.8h0c0-.3,0-.6-.2-.8,0-.2-.2-.3-.4-.3s-.3,0-.4.3c0,.2-.2.4-.2.8h0c0,.3,0,.6.2.8,0,.2.2.3.4.3ZM801.7,77.7h-.8l3.9-5.8h.8l-3.9,5.8ZM805.4,77.8c-.3,0-.5,0-.7-.2-.2,0-.3-.3-.4-.6,0-.2-.2-.5-.2-.8h0c0-.3,0-.6.2-.8,0-.2.2-.4.4-.5s.4-.2.7-.2.5,0,.7.2c.2,0,.3.3.4.5,0,.2.2.5.2.8h0c0,.3,0,.6-.2.8,0,.2-.2.4-.4.6-.2,0-.4.2-.7.2h0ZM805.4,77.3c.2,0,.3,0,.4-.3,0-.2.2-.4.2-.8h0c0-.3,0-.6-.2-.8,0-.2-.2-.3-.4-.3s-.3,0-.4.3c0,.2-.2.4-.2.8h0c0,.3,0,.6.2.8,0,.2.2.3.4.3h0Z"/>
      <path class="st8" d="M825.1,71.1l.3-.6h0l-.3.6ZM826.1,72.1l.6-.3h0l-.6.3ZM826.1,77.9l.6.3h0l-.6-.3h0ZM826,78l.6.4h0l-.6-.3h0ZM825.1,78.8l.3.6h0l-.3-.6h0ZM825,78.9l.3.6h0l-.3-.6h0ZM813.5,79.1v.7h0v-.7ZM812.7,79.1v.7h0v-.7ZM811.2,78.8l-.3.6h0l.3-.6ZM810.3,78l-.6.3h0l.6-.3h0ZM810.2,77.9l-.6.3h0l.6-.3h0ZM810.1,72.2l-.6-.3h0l.6.3h0ZM810.2,72.1l-.6-.3h0l.6.3h0ZM811,71.2l-.3-.6h0l.4.6h-.1ZM811.2,71.1l-.3-.6h0l.3.6ZM812.7,70.9v-.7h0v.7h0ZM813.5,70.9v-.7h0v.7ZM812.1,71.6v-.7h0v.7ZM811.5,71.7l-.3-.6h0l.3.6ZM810.8,72.4l-.6-.3h0l.6.3ZM810.7,73h-.7.7ZM810.7,76.9h-.7.7ZM810.8,77.6l-.6.3h0l.6-.3ZM811.5,78.2l-.3.6h0l.3-.6ZM812.1,78.4v.7h0v-.7ZM824.2,78.4v.7h0v-.7ZM824.8,78.2l.3.6h0l-.3-.6ZM825.5,77.6l.6.3h0l-.6-.3ZM825.6,76.9h.7-.7ZM825.6,73h.7-.7ZM825.5,72.4l.6-.3h0l-.6.3ZM824.8,71.7l.3-.6h0l-.3.6ZM824.2,71.6v-.7h0v.7ZM827,73.7l.2-.7-.8-.2v.9h.7-.1ZM827,76.3h-.7v.9l.8-.2-.2-.7h.1ZM822.8,70.9v.7h1.4c.3,0,.5,0,.6,0l.3-.6.3-.6c-.3-.2-.7-.2-1.1-.3h-1.5v.7h0ZM825.1,71.1l-.3.6c.3.2.5.4.7.7l.6-.3.6-.3c-.3-.6-.7-1-1.3-1.3l-.3.6h0ZM826.1,72.1l-.6.3c0,0,0,.3,0,.6v1.4h1.4v-1.5c0-.4,0-.8-.3-1.1l-.6.3h0ZM826.3,74.4h-.7v1.1h1.4v-1.1h-.7ZM826.3,75.5h-.7v1.4c0,.3,0,.5,0,.6l.6.3.6.3c.2-.3.2-.7.3-1.1v-1.5h-.7,0ZM826.1,77.9l-.6-.3v.2l.5.3.6.3v-.2l-.5-.3ZM826,78l-.6-.4c-.2.2-.4.4-.6.6l.3.6.3.6c.5-.2.9-.6,1.2-1.1l-.6-.4h0ZM825.1,78.8l-.3-.6h0l.3.7.3.6h0l-.3-.7ZM825,78.9l-.3-.6c0,0-.3,0-.6,0h-1.3v1.4h1.4c.4,0,.8,0,1.1-.2l-.3-.6h0ZM822.8,79.1v-.7h-9.3v1.4h9.3v-.7h0ZM813.5,79.1v-.7h-.8v1.4h.8v-.7ZM812.7,79.1v-.7c-.7,0-1,0-1.2-.2l-.3.6-.3.6c.5.3,1.1.3,1.8.3v-.7h0ZM811.2,78.8l.3-.6c-.2,0-.5-.3-.6-.6l-.6.4-.6.4c.3.5.7.8,1.2,1.1l.3-.6h0ZM810.3,78l.6-.3v-.2l-.7.3-.6.3v.2l.7-.3ZM810.2,77.9l.6-.3c0,0,0-.3,0-.6v-1.4h-1.4v1.5c0,.4,0,.8.3,1.1l.6-.3h0ZM809.9,75.5h.7v-1.1h-1.4v1.1h.7ZM809.9,74.4h.7v-1.3c0-.3,0-.5,0-.6l-.6-.3-.6-.3c0,.3-.2.7-.2,1.1v1.4h.7-.1ZM810.1,72.2l.6.3h0l-.6-.4-.6-.3h0l.6.4ZM810.2,72.1l.6.3c0-.2.3-.5.6-.6l-.4-.6-.4-.6c-.5.3-.8.7-1.1,1.2l.6.3h.1ZM811,71.2l.3.6h.2l-.3-.7-.3-.6h-.2l.3.7ZM811.2,71.1l.3.6c.2,0,.5-.2,1.2-.2v-1.4c-.7,0-1.3,0-1.8.3l.3.6h0ZM812.7,70.9v.7h.8v-1.4h-.8v.7h0ZM813.5,70.9v.7h9.3v-1.4h-9.3v.7h0ZM813.5,71.6v-.7h-1.5v1.4h1.4v-.7h.1ZM812.1,71.6v-.7c-.4,0-.7,0-.9.2l.3.6.3.6h.4v-.7h0ZM811.5,71.7l-.3-.6c-.4.2-.8.6-1,1l.6.3.6.3c0-.2.2-.3.4-.4,0,0-.3-.6-.3-.6ZM810.8,72.4l-.6-.3c0,.2-.2.5-.2.9h1.4v-.3l-.6-.3h0ZM810.7,73h-.7v1.4h1.4v-1.3h-.7ZM810.6,74.4h-.7v1.1h1.4v-1.1h-.7ZM810.6,75.5h-.7v1.5h1.4v-1.4h-.7ZM810.7,76.9h-.7c0,.4,0,.7.2.9l.6-.3.6-.3v-.4h-.7,0ZM810.8,77.6l-.6.3c.2.4.5.8,1,1l.3-.6.3-.6c-.2,0-.3-.2-.4-.4,0,0-.6.3-.6.3ZM811.5,78.2l-.3.6c.2,0,.5.2.9.2v-1.4h-.3l-.3.6h0ZM812.1,78.4v.7h1.4v-1.4h-1.3v.7h-.1ZM813.5,78.4v.7h9.3v-1.4h-9.3v.7h0ZM822.8,78.4v.7h1.5v-1.4h-1.4v.7h-.1ZM824.2,78.4v.7c.4,0,.7,0,.9-.2l-.3-.6-.3-.6h-.4v.7h0ZM824.8,78.2l.3.6c.4-.2.8-.6,1-1l-.6-.3-.6-.3c0,.2-.2.3-.4.4,0,0,.3.6.3.6ZM825.5,77.6l.6.3c0-.2.2-.5.2-.9h-1.4v.3l.6.3h0ZM825.6,76.9h.7v-1.4h-1.4v1.3h.7ZM825.7,75.5h.7v-1.1h-1.4v1.1h.7ZM825.7,74.4h.7v-1.5h-1.4v1.4h.7ZM825.6,73h.7c0-.4,0-.7-.2-.9l-.6.3-.6.3v.4h.7,0ZM825.5,72.4l.6-.3c-.2-.4-.5-.8-1-1l-.3.6-.3.6c.2,0,.3.2.4.4,0,0,.6-.3.6-.3ZM824.8,71.7l.3-.6c-.2,0-.5-.2-.9-.2v1.4h.3l.3-.6h0ZM824.2,71.6v-.7h-1.4v1.4h1.3v-.7h.1ZM822.8,71.6v-.7h-9.3v1.4h9.3v-.7h0ZM827,73.7l-.2.7c.3,0,.5.3.5.7h1.4c0-1-.7-1.8-1.5-2l-.2.7h0ZM828,75h-.7c0,.3-.2.6-.5.7l.2.7.2.7c.9-.2,1.5-1,1.5-2h-.7ZM827,76.3h.7v-2.7h-1.4v2.7h.7Z"/>
      <rect class="st8" x="811.3" y="72.2" width="13.7" height="5.5" rx="1.5" ry="1.5"/>
    </g>
    <rect class="st2" x="362.5" y="477.4" width="279.5" height="40.5" rx="8.5" ry="8.5"/>
    <g>
      <path class="st0" d="M600.4,484.8h0c0,0,.2,0,.2.2v24.5c0,.1,0,.2-.2.2h0c0,0-.2,0-.2-.2v-24.5c0-.1,0-.2.2-.2Z"/>
      <rect class="st3" x="369.4" y="483.1" width="29.2" height="29.2" rx="7.4" ry="7.4"/>
      <rect class="st3" x="408.8" y="483.1" width="29.2" height="29.2" rx="7.4" ry="7.4"/>
      <rect class="st3" x="448.2" y="483.1" width="29.2" height="29.2" rx="7.4" ry="7.4"/>
      <rect class="st3" x="487.6" y="483.1" width="29.2" height="29.2" rx="7.4" ry="7.4"/>
      <rect class="st3" x="527" y="483.1" width="29.2" height="29.2" rx="7.4" ry="7.4"/>
      <rect class="st3" x="566.4" y="483.1" width="29.2" height="29.2" rx="7.4" ry="7.4"/>
      <rect class="st3" x="605.8" y="483.1" width="29.2" height="29.2" rx="7.4" ry="7.4"/>
    </g>
  </g>
  <g id="_外壳">
    <path id="_外壳颜色" class="st10" d="M864.6,562.3c2.9-3.6,4.7-8.2,4.7-13.2V79.7c0-16.8-13.6-30.3-30.3-30.3H152.4c-16.8,0-30.3,13.6-30.3,30.3v469.4c0,5,1.8,9.6,4.7,13.2H48.1v4.5c0,10.2,8.3,18.5,18.5,18.5h29.9c.4,2.5,2.5,4.3,5.1,4.3h48c2.6,0,4.7-1.9,5.1-4.3h681.8c.4,2.5,2.5,4.3,5.1,4.3h48c2.6,0,4.7-1.9,5.1-4.3h28.9c10.2,0,18.5-8.3,18.5-18.5v-4.5h-77.5ZM131.3,86.7c0-16.8,13.6-30.3,30.4-30.3h670.3c16.8,0,30.3,13.6,30.3,30.3v441.8c0,11.7-9.5,21.2-21.2,21.2H152.5c-11.7,0-21.2-9.5-21.2-21.2V86.7Z"/>
    <path id="_细节" class="st6" d="M414.8,562.8c0,6,4.9,10.8,10.8,10.8h140c6,0,10.8-4.8,10.8-10.8s0-.3,0-.5h-161.6v.5h0Z"/>
    <g id="_屏幕黑色边框">
      <path id="_屏幕黑色边框-2" class="st1" d="M835.6,52.5H155.7c-16.8,0-30.3,13.6-30.3,30.4v463.9c0,6.1,2.6,11.7,6.8,15.5h727.1c4.2-3.9,6.8-9.4,6.8-15.5V82.9c0-16.8-13.6-30.3-30.3-30.3h-.2ZM853.1,528.8c0,.2,0,.3-.3.3H138.5c-.2,0-.3,0-.3-.3V75.7c0-5.2,4.2-9.4,9.4-9.4h300.1c2.4,0,4.3,1.9,4.3,4.3v7.3c0,2.4,1.9,4.3,4.3,4.3h77.3c2.4,0,4.3-1.9,4.3-4.3v-7.3c0-2.4,1.9-4.3,4.3-4.3h301.3c5.2,0,9.4,4.2,9.4,9.4v453.1h.2Z"/>
      <path id="_屏幕灰色底框" class="st9" d="M125.4,541.3v5.5c0,6.1,2.6,11.7,6.8,15.5h727.1c4.2-3.9,6.8-9.4,6.8-15.5v-5.5H125.4Z"/>
    </g>
    <g id="_底座支撑">
      <path class="st4" d="M836.5,585.3c.4,2.5,2.5,4.3,5.1,4.3h48c2.6,0,4.7-1.9,5.1-4.3h-58.2,0Z"/>
      <path class="st4" d="M96.5,585.3c.4,2.5,2.5,4.3,5.1,4.3h48c2.6,0,4.7-1.9,5.1-4.3h-58.2Z"/>
    </g>
  </g>
</svg>